<?xml version="1.0" encoding="UTF-8" standalone="no"?>
<!-- Created with Inkscape (http://www.inkscape.org/) -->

<svg
   width="1in"
   height="1in"
   viewBox="0 0 25.4 25.4"
   version="1.1"
   id="svg1"
   sodipodi:docname="profile.svg"
   inkscape:version="1.3.2 (091e20e, 2023-11-25)"
   xmlns:inkscape="http://www.inkscape.org/namespaces/inkscape"
   xmlns:sodipodi="http://sodipodi.sourceforge.net/DTD/sodipodi-0.dtd"
   xmlns="http://www.w3.org/2000/svg"
   xmlns:svg="http://www.w3.org/2000/svg">
  <sodipodi:namedview
     id="namedview1"
     pagecolor="#ffffff"
     bordercolor="#000000"
     borderopacity="0.25"
     inkscape:showpageshadow="2"
     inkscape:pageopacity="0.0"
     inkscape:pagecheckerboard="0"
     inkscape:deskcolor="#d1d1d1"
     inkscape:document-units="in"
     inkscape:zoom="7.6977254"
     inkscape:cx="51.248905"
     inkscape:cy="50.794226"
     inkscape:window-width="1728"
     inkscape:window-height="1051"
     inkscape:window-x="0"
     inkscape:window-y="38"
     inkscape:window-maximized="1"
     inkscape:current-layer="layer1" />
  <defs
     id="defs1" />
  <g
     inkscape:label="Layer 1"
     inkscape:groupmode="layer"
     id="layer1">
    <path
       id="path5"
       style="fill:#cccccc;fill-opacity:1;stroke:none;stroke-width:1.27;stroke-linejoin:round;stroke-dasharray:none;stroke-opacity:1;paint-order:markers stroke fill"
       d="M 12.7 3.8979533 A 5.0799999 5.0799999 0 0 0 7.6202067 8.9782633 A 5.0799999 5.0799999 0 0 0 12.7 14.058057 A 5.0799999 5.0799999 0 0 0 17.779793 8.9782633 A 5.0799999 5.0799999 0 0 0 12.7 3.8979533 z M 12.7 15.708085 A 12.05412 7.6024356 0 0 0 2.1213175 19.706807 A 12.7 12.7 0 0 0 12.7 25.4 A 12.7 12.7 0 0 0 23.293669 19.686654 A 12.05412 7.6024356 0 0 0 12.7 15.708085 z " />
  </g>
</svg>
