<?xml version="1.0" encoding="UTF-8" standalone="no"?>
<!-- Created with Inkscape (http://www.inkscape.org/) -->

<svg
   width="160mm"
   height="160mm"
   viewBox="0 0 160 160"
   version="1.1"
   id="svg1"
   xml:space="preserve"
   inkscape:version="1.3.2 (091e20e, 2023-11-25)"
   sodipodi:docname="icons.svg"
   inkscape:export-filename="../s3/wand-book.png"
   inkscape:export-xdpi="6.3499999"
   inkscape:export-ydpi="6.3499999"
   xmlns:inkscape="http://www.inkscape.org/namespaces/inkscape"
   xmlns:sodipodi="http://sodipodi.sourceforge.net/DTD/sodipodi-0.dtd"
   xmlns="http://www.w3.org/2000/svg"
   xmlns:svg="http://www.w3.org/2000/svg"><sodipodi:namedview
     id="namedview1"
     pagecolor="#ffffff"
     bordercolor="#000000"
     borderopacity="0.25"
     inkscape:showpageshadow="2"
     inkscape:pageopacity="0.0"
     inkscape:pagecheckerboard="0"
     inkscape:deskcolor="#d1d1d1"
     inkscape:document-units="mm"
     inkscape:zoom="0.60533331"
     inkscape:cx="153.63437"
     inkscape:cy="370.04407"
     inkscape:window-width="1728"
     inkscape:window-height="1051"
     inkscape:window-x="0"
     inkscape:window-y="38"
     inkscape:window-maximized="1"
     inkscape:current-layer="layer7" /><defs
     id="defs1" /><g
     id="g20"
     inkscape:label="characters"
     style="display:none"
     transform="translate(-29.284209,-31.431992)"><ellipse
       style="fill:#b1b1b1;fill-opacity:1;stroke:none;stroke-width:2.54;stroke-linejoin:round;stroke-opacity:1;paint-order:markers stroke fill"
       id="path2"
       cx="105"
       cy="75.510193"
       rx="38.971344"
       ry="48.103592" /><path
       id="path3"
       style="display:inline;fill:#606060;fill-opacity:1;stroke:none;stroke-width:2.54;stroke-linejoin:round;stroke-opacity:1;paint-order:markers stroke fill"
       d="m 82.973986,121.06547 c 0,0 -2.54857,0.63703 -18.264518,7.22075 -26.847533,11.24695 -26.547256,30.36976 -27.184387,39.92676 -0.637134,9.55699 10.406843,7.64573 23.361881,11.25616 12.080084,3.36658 39.615798,3.0443 43.412338,2.98483 l 0.002,0.0961 c 0,0 31.85669,0.63695 44.81174,-2.97346 12.95503,-3.61043 23.99902,-1.69917 23.36188,-11.25616 -0.63713,-9.557 -0.33686,-28.67982 -27.18439,-39.92676 -15.71594,-6.58372 -18.26452,-7.22127 -18.26452,-7.22127 -12.19998,10.5534 -31.314061,10.53579 -44.052094,-0.10697 z"
       sodipodi:nodetypes="csssccsssccc" /></g><g
     inkscape:groupmode="layer"
     id="layer2"
     inkscape:label="locations"
     style="display:none"
     transform="translate(-29.284209,-31.431992)"><g
       id="g6"
       transform="translate(5.747435,6.7812585)"
       style="display:inline"><path
         style="fill:#d9d9d9;fill-opacity:1;stroke:none;stroke-width:2.54;stroke-linejoin:round;stroke-opacity:1;paint-order:markers stroke fill"
         d="m 31.24265,80.773679 1.143024,87.631821 34.290714,-15.62132 62.104292,17.14536 38.10079,-15.62133 0.38101,-86.488798 -36.95777,12.192251 -63.628322,-14.097291 z"
         id="path4" /><path
         style="fill:#b1b1b1;fill-opacity:1;stroke:none;stroke-width:2.54;stroke-linejoin:round;stroke-opacity:1;paint-order:markers stroke fill"
         d="M 66.676388,152.78418 128.78068,169.92954 130.30471,80.011663 66.676388,65.914372 Z"
         id="path5"
         sodipodi:nodetypes="ccccc" /></g><path
       id="path6"
       style="display:inline;fill:#606060;fill-opacity:1;stroke-width:2.54;stroke-linejoin:round;paint-order:markers stroke fill"
       d="m 104.99979,33.289202 c -16.568524,-2e-6 -29.999717,13.431709 -29.999717,30.000235 0,16.568527 29.999717,63.992993 29.999717,63.992993 0,0 30.00024,-47.424467 30.00024,-63.992993 0,-16.568526 -13.43171,-30.000236 -30.00024,-30.000235 z m 0,14.653369 A 15,15 0 0 1 119.99991,62.942689 15,15 0 0 1 104.99979,77.942806 15,15 0 0 1 90.000191,62.942689 15,15 0 0 1 104.99979,47.942571 Z" /></g><g
     inkscape:groupmode="layer"
     id="layer3"
     inkscape:label="lore"
     style="display:inline"
     transform="translate(-29.284209,-31.431992)"><g
       id="g16"
       transform="translate(4.2842095,-15.190667)"><path
         id="path7"
         style="display:inline;fill:#b1b1b1;fill-opacity:1;stroke:none;stroke-width:2.54;stroke-linejoin:round;stroke-opacity:1;paint-order:markers stroke fill"
         d="m 48.381752,74.686451 c -10.704727,0.08064 -7.345288,9.863481 -7.345288,9.863481 0,0 -2.51811,-0.419669 -6.715353,-0.209807 -4.19724,0.209862 -5.036902,4.406967 -5.036902,4.406967 v 79.118168 c 0,4.61698 4.61729,4.61678 4.61729,4.61678 l 56.872497,0.2098 c 0.839449,7.55504 13.221414,5.66632 13.221414,5.66632 h 2.00918 c 0,0 12.38197,1.88872 13.22142,-5.66632 l 56.87249,-0.2098 c 0,0 4.61729,2e-4 4.61729,-4.61678 V 88.747092 c 0,0 -0.83964,-4.197105 -5.0369,-4.406967 -4.19724,-0.209862 -6.71535,0.209807 -6.71535,0.209807 0,0 3.35944,-9.781958 -7.34529,-9.863481 C 108.90374,74.284999 105.14019,87.234371 105,87.245891 104.85981,87.234371 101.67198,74.284999 48.381752,74.686451 Z"
         sodipodi:nodetypes="scscsccccccscscscs" /><path
         style="display:inline;fill:#d9d9d9;fill-opacity:1;stroke:none;stroke-width:2.54;stroke-linejoin:round;stroke-opacity:1;paint-order:markers stroke fill"
         d="m 101.97377,164.73791 c 0,0 -17.847455,-7.67633 -30.705302,-7.48442 -12.857848,0.1919 -22.645163,2.11099 -22.645163,2.11099 V 84.270441 c 0,0 4.991949,-1.542613 12.282122,-1.727174 30.321493,-0.767633 41.260253,11.188588 41.260253,11.188588 z"
         id="path8"
         sodipodi:nodetypes="csccscc" /><path
         style="display:inline;fill:#d9d9d9;fill-opacity:1;stroke:none;stroke-width:2.54;stroke-linejoin:round;stroke-opacity:1;paint-order:markers stroke fill"
         d="m 108.61106,164.73791 c 0,0 17.84747,-7.67633 30.70532,-7.48442 12.85786,0.1919 22.64518,2.11099 22.64518,2.11099 V 84.270441 c 0,0 -4.99195,-1.542613 -12.28213,-1.727174 -30.32151,-0.767633 -41.26028,11.188588 -41.26028,11.188588 z"
         id="path9"
         sodipodi:nodetypes="csccscc" /></g><g
       inkscape:groupmode="layer"
       id="layer6"
       inkscape:label="fire"
       transform="translate(29.284209,31.431992)"
       style="display:none"><path
         style="display:inline;fill:#606060;fill-opacity:1;stroke:none;stroke-width:2.54;stroke-linejoin:round;stroke-opacity:1;paint-order:markers stroke fill"
         d="m 102.36397,31.710133 c -2.901506,-1.075768 -4.199696,1.105183 -3.536584,4.199697 0.663109,3.094512 1.547254,2.210368 1.547254,7.515247 0,5.30488 -3.094511,13.483238 -6.410063,17.4619 -7.124871,8.549849 -7.461212,15.030494 -9.283541,15.030494 -2.65244,0 -3.536588,-5.525915 -4.199697,-8.399393 -0.663109,-2.873478 -3.757623,-1.989331 -5.083844,0.442074 -1.326221,2.431404 -9.062506,17.461899 -8.178358,30.945137 0.884147,13.483241 9.134264,24.545241 20.114339,30.503071 10.546002,5.7223 28.711214,8.33819 43.102154,-4.1997 12.81022,-11.16071 14.58843,-22.32471 14.58843,-32.050325 0,-9.725615 -7.95733,-24.977148 -11.27288,-27.187514 -3.31555,-2.210366 -5.30488,0.221036 -5.30488,2.873478 0,2.65244 1.7683,11.272872 -3.31555,11.714943 -5.08384,0.442074 -5.74695,-3.315549 -4.86281,-7.29421 0.88415,-3.978662 3.28632,-10.42209 1.98933,-16.577752 -2.39619,-11.372588 -8.90045,-20.901418 -19.8933,-24.977147 z"
         id="path10"
         sodipodi:nodetypes="sssssssssssssssss"
         transform="translate(-29.284208,-31.431992)" /><path
         style="display:inline;fill:#d9d9d9;fill-opacity:1;stroke:none;stroke-width:2.54;stroke-linejoin:round;stroke-opacity:1;paint-order:markers stroke fill"
         d="m 107.37409,82.923283 c 0.84086,-3.924024 0.981,-5.325464 -0.14015,-4.90503 -1.12115,0.42043 -6.16632,5.745892 -7.567759,10.791068 -1.401437,5.045173 -0.840862,8.408625 0,12.052359 0.840859,3.64374 4.064169,7.28748 -0.840862,8.12834 -4.905031,0.84086 -5.18532,-2.38245 -6.306468,-5.46561 -1.12115,-3.08316 -1.54158,-5.465603 -2.242301,-6.026178 -0.700716,-0.560575 -2.522588,5.045178 -2.943019,8.548768 -0.42043,3.50359 0.70072,13.73409 4.76489,17.23768 4.064166,3.5036 9.529769,6.86705 17.798249,4.90503 8.26848,-1.96201 12.4728,-6.58675 13.31366,-12.05236 0.84086,-5.4656 -1.12115,-12.4728 -4.4846,-15.6961 -4.92584,-4.597877 -12.64443,-9.725118 -11.35164,-17.517967 z"
         id="path11"
         sodipodi:nodetypes="sssssssssssss"
         transform="translate(-29.284208,-31.431992)" /></g><g
       inkscape:groupmode="layer"
       id="layer1"
       inkscape:label="sparkles"><path
         sodipodi:type="star"
         style="display:inline;fill:#606060;fill-opacity:1;stroke-width:2.54;stroke-linejoin:round;paint-order:markers stroke fill"
         id="path18"
         inkscape:flatsided="false"
         sodipodi:sides="7"
         sodipodi:cx="318.35794"
         sodipodi:cy="185.29427"
         sodipodi:r1="39.580421"
         sodipodi:r2="19.790209"
         sodipodi:arg1="0.80761673"
         sodipodi:arg2="1.2564157"
         inkscape:rounded="0"
         inkscape:randomized="0"
         d="m 345.71682,213.89674 -21.2392,-9.78222 -11.42401,20.40313 -5.59438,-22.70459 -23.07456,3.7895 14.26312,-18.52995 -17.3495,-15.6777 23.38021,-0.40188 1.44008,-23.33927 14.89152,18.02882 19.14526,-13.4259 -4.81079,22.88344 22.43367,6.59746 -20.89048,10.50637 z"
         inkscape:transform-center-x="-0.093460379"
         inkscape:transform-center-y="-0.42701395"
         transform="matrix(-0.26056371,0.04594441,-0.04594441,-0.26056371,212.52628,111.43205)" /><path
         sodipodi:type="star"
         style="display:inline;fill:#606060;fill-opacity:1;stroke-width:2.54;stroke-linejoin:round;paint-order:markers stroke fill"
         id="path19"
         inkscape:flatsided="false"
         sodipodi:sides="7"
         sodipodi:cx="338.25531"
         sodipodi:cy="119.38422"
         sodipodi:r1="25.364271"
         sodipodi:r2="12.682134"
         sodipodi:arg1="0.19739556"
         sodipodi:arg2="0.64619451"
         inkscape:rounded="0"
         inkscape:randomized="0"
         d="m 363.12702,124.35856 -14.74653,2.66224 1.49298,14.91036 -11.27573,-9.86943 -10.72653,10.46372 0.68592,-14.96922 -14.86875,-1.86231 12.13107,-8.79687 -7.81449,-12.78599 14.44127,3.99969 5.12423,-14.081557 5.8769,13.784407 14.20431,-4.77342 -7.1129,13.18918 z"
         inkscape:transform-center-x="0.29892185"
         inkscape:transform-center-y="0.034138287"
         transform="matrix(-0.26056371,0.04594441,-0.04594441,-0.26056371,212.52628,111.43205)" /><path
         sodipodi:type="star"
         style="display:inline;fill:#606060;fill-opacity:1;stroke-width:2.54;stroke-linejoin:round;paint-order:markers stroke fill"
         id="path20"
         inkscape:flatsided="false"
         sodipodi:sides="7"
         sodipodi:cx="387.99872"
         sodipodi:cy="218.87108"
         sodipodi:r1="29.270531"
         sodipodi:r2="14.635264"
         sodipodi:arg1="1.3567356"
         sodipodi:arg2="1.8055346"
         inkscape:rounded="0"
         inkscape:randomized="0"
         d="m 394.21665,247.47355 -9.62193,-14.36858 -15.0815,8.46083 5.23464,-16.48138 -16.01811,-6.51596 16.14941,-6.18337 -4.89275,-16.58609 14.90334,8.77084 9.91695,-14.16656 2.43477,17.12044 17.25898,-1.07932 -11.86725,12.57799 11.60465,12.82066 -17.23298,-1.43593 z"
         inkscape:transform-center-x="-0.10369643"
         inkscape:transform-center-y="0.28168845"
         transform="matrix(-0.26056371,0.04594441,-0.04594441,-0.26056371,212.52628,111.43205)" /><path
         sodipodi:type="star"
         style="display:inline;fill:#606060;fill-opacity:1;stroke-width:2.54;stroke-linejoin:round;paint-order:markers stroke fill"
         id="path21"
         inkscape:flatsided="false"
         sodipodi:sides="7"
         sodipodi:cx="406.65253"
         sodipodi:cy="149.23029"
         sodipodi:r1="37.596622"
         sodipodi:r2="18.798307"
         sodipodi:arg1="0.97361967"
         sodipodi:arg2="1.4224186"
         inkscape:rounded="0"
         inkscape:randomized="0"
         d="m 427.79348,180.31993 -18.36193,-12.49789 -13.90471,17.32099 -1.67724,-22.14824 -22.21154,-0.0717 16.27045,-15.12052 -13.79262,-17.41038 21.96616,3.29327 5.01242,-21.6387 11.1209,19.22715 20.04301,-9.57264 -8.09862,20.6826 19.9808,9.70182 -21.21972,6.56363 z"
         inkscape:transform-center-x="0.27791352"
         inkscape:transform-center-y="-0.21770346"
         transform="matrix(-0.26056371,0.04594441,-0.04594441,-0.26056371,214.64296,110.37372)" /><path
         sodipodi:type="star"
         style="display:inline;fill:#606060;fill-opacity:1;stroke-width:2.54;stroke-linejoin:round;paint-order:markers stroke fill"
         id="path22"
         inkscape:flatsided="false"
         sodipodi:sides="7"
         sodipodi:cx="329.5502"
         sodipodi:cy="257.42224"
         sodipodi:r1="13.219497"
         sodipodi:r2="6.6097469"
         sodipodi:arg1="0.85196633"
         sodipodi:arg2="1.3007653"
         inkscape:rounded="0"
         inkscape:randomized="0"
         d="m 338.2553,267.37093 -6.94187,-3.57846 -4.11388,6.6386 -1.53044,-7.65851 -7.75523,0.92273 5.03345,-5.97154 -5.55672,-5.48796 7.80704,0.21211 0.8261,-7.76612 4.70178,6.23605 6.58686,-4.19622 -1.94403,7.56411 7.38758,2.5335 -7.12594,3.19625 z"
         inkscape:transform-center-x="0.0032897656"
         inkscape:transform-center-y="-0.1699726"
         transform="matrix(-0.26056371,0.04594441,-0.04594441,-0.26056371,212.52628,111.43205)" /><path
         sodipodi:type="star"
         style="display:inline;fill:#606060;fill-opacity:1;stroke-width:2.54;stroke-linejoin:round;paint-order:markers stroke fill"
         id="path23"
         inkscape:flatsided="false"
         sodipodi:sides="7"
         sodipodi:cx="442.71649"
         sodipodi:cy="60.935699"
         sodipodi:r1="62.489407"
         sodipodi:r2="31.244696"
         sodipodi:arg1="0.82762657"
         sodipodi:arg2="1.2764255"
         inkscape:rounded="0"
         inkscape:randomized="0"
         d="M 484.9984,106.94837 451.78176,90.836401 433.10468,122.68146 424.99128,86.665993 388.44884,91.918734 411.54825,63.12015 384.65766,37.825151 421.57554,37.929371 424.58595,1.1342819 447.5224,30.062826 478.16692,9.4751004 469.85031,45.444185 505.05299,56.5668 471.7459,72.49097 Z"
         inkscape:transform-center-x="-0.073968689"
         inkscape:transform-center-y="-0.74640112"
         transform="matrix(-0.26056371,0.04594441,-0.04594441,-0.26056371,212.52628,111.43205)" /><path
         sodipodi:type="star"
         style="display:inline;fill:#606060;fill-opacity:1;stroke-width:2.54;stroke-linejoin:round;paint-order:markers stroke fill"
         id="path24"
         inkscape:flatsided="false"
         sodipodi:sides="7"
         sodipodi:cx="480.02408"
         sodipodi:cy="149.23029"
         sodipodi:r1="56.305737"
         sodipodi:r2="28.152861"
         sodipodi:arg1="1.6814535"
         sodipodi:arg2="2.1302525"
         inkscape:rounded="0"
         inkscape:randomized="0"
         d="m 473.80615,205.19164 -8.72351,-32.10057 -32.68772,6.16918 19.65821,-26.83469 -25.20372,-21.70988 33.23691,-1.36174 1.25919,-33.240951 21.78753,25.136631 26.77392,-19.74092 -6.06831,32.70661 32.12733,8.62443 -29.35457,15.64785 13.28821,30.4954 -30.53626,-13.19406 z"
         inkscape:transform-center-x="-0.21161233"
         inkscape:transform-center-y="-0.52985707"
         transform="matrix(-0.26056371,0.04594441,-0.04594441,-0.26056371,212.52628,111.43205)" /><path
         sodipodi:type="star"
         style="display:inline;fill:#606060;fill-opacity:1;stroke-width:2.54;stroke-linejoin:round;paint-order:markers stroke fill"
         id="path25"
         inkscape:flatsided="false"
         sodipodi:sides="7"
         sodipodi:cx="549.66486"
         sodipodi:cy="53.474182"
         sodipodi:r1="60.681374"
         sodipodi:r2="28.17345"
         sodipodi:arg1="0.77090641"
         sodipodi:arg2="1.2197054"
         inkscape:rounded="0"
         inkscape:randomized="0"
         d="m 593.19035,95.756094 -33.83601,-15.827096 -15.60911,33.937132 -8.72229,-36.322099 -36.26523,8.955764 22.9595,-29.465818 -29.61291,-22.769475 37.35232,-0.421177 -0.66145,-37.3488352 23.61808,28.9406192 28.78809,-23.8037609 -7.90106,36.5095389 36.55961,7.666031 -33.47053,16.586031 z"
         transform="matrix(-0.26056371,0.04594441,-0.04594441,-0.26056371,213.21269,109.64048)"
         inkscape:transform-center-x="-0.99728251"
         inkscape:transform-center-y="0.34292236" /></g><g
       inkscape:groupmode="layer"
       id="layer7"
       inkscape:label="wand"
       transform="translate(29.284209,31.431992)"><g
         id="g26"
         transform="matrix(1.3295836,-0.27655354,-0.27655362,1.232056,-25.504993,19.151683)"><rect
           style="display:inline;fill:#606060;fill-opacity:1;stroke-width:2.54;stroke-linejoin:round;paint-order:markers stroke fill"
           id="rect25"
           width="90.48381"
           height="7"
           x="73.504013"
           y="-66.839546"
           rx="1"
           ry="1"
           transform="rotate(50)" /><path
           id="rect26"
           style="display:inline;fill:#b1b1b1;fill-opacity:1;stroke-width:2.54;stroke-linejoin:round;paint-order:markers stroke fill"
           d="m 99.092319,14.109747 10.302271,12.271389 -5.36231,4.499513 -10.302272,-12.271388 c -0.356213,-0.424298 -0.301132,-1.052728 0.123257,-1.408832 l 3.830222,-3.213938 c 0.424388,-0.356105 1.052728,-0.301132 1.408832,0.123256 z"
           sodipodi:nodetypes="sccssss" /></g></g></g><g
     inkscape:groupmode="layer"
     id="layer4"
     inkscape:label="sessions"
     style="display:none"
     transform="translate(-29.284209,-31.431992)"><rect
       style="display:inline;fill:#d9d9d9;fill-opacity:1;stroke:none;stroke-width:2.54;stroke-linejoin:round;stroke-opacity:1;paint-order:markers stroke fill"
       id="rect11"
       width="145.98805"
       height="128.60855"
       x="32.005974"
       y="46.590664"
       ry="14.89674" /><rect
       style="display:inline;fill:#b1b1b1;fill-opacity:1;stroke:none;stroke-width:2.54;stroke-linejoin:round;stroke-opacity:1;paint-order:markers stroke fill"
       id="rect13"
       width="18.629211"
       height="33.269386"
       x="57.073868"
       y="34.800785"
       rx="3.8983295"
       ry="3.5454109" /><rect
       style="display:inline;fill:#b1b1b1;fill-opacity:1;stroke:none;stroke-width:2.54;stroke-linejoin:round;stroke-opacity:1;paint-order:markers stroke fill"
       id="rect13-2"
       width="18.629211"
       height="33.269386"
       x="134.44446"
       y="34.800785"
       rx="3.8983295"
       ry="3.5454109" /><path
       id="rect14"
       style="fill:#b1b1b1;stroke-width:2.54;stroke-linejoin:round;paint-order:markers stroke fill"
       d="m 170.3986,78.60179 v 80.98605 c 0,3.80342 -2.78386,6.86538 -6.24184,6.86538 H 45.013365 c -3.457979,0 -6.241839,-3.06196 -6.241839,-6.86538 V 78.60179 Z"
       sodipodi:nodetypes="csssscc" /><path
       sodipodi:type="star"
       style="fill:#606060;fill-opacity:1;stroke:none;stroke-width:2.54;stroke-linejoin:round;stroke-opacity:1;paint-order:markers stroke fill"
       id="path14"
       inkscape:flatsided="true"
       sodipodi:sides="6"
       sodipodi:cx="69.524094"
       sodipodi:cy="72.844063"
       sodipodi:r1="35.896103"
       sodipodi:r2="31.086933"
       sodipodi:arg1="0.46851375"
       sodipodi:arg2="0.99211253"
       inkscape:rounded="0"
       inkscape:randomized="0"
       d="M 101.55205,89.053332 71.500432,108.68572 39.472478,92.47645 37.49614,56.634794 67.547756,37.002407 99.575709,53.211676 Z"
       transform="translate(10.258839,45.176641)" /><path
       sodipodi:type="star"
       style="fill:#606060;fill-opacity:1;stroke:none;stroke-width:2.54;stroke-linejoin:round;stroke-opacity:1;paint-order:markers stroke fill"
       id="path15"
       inkscape:flatsided="true"
       sodipodi:sides="3"
       sodipodi:cx="126.94005"
       sodipodi:cy="82.022804"
       sodipodi:r1="20.891722"
       sodipodi:r2="10.445861"
       sodipodi:arg1="1.2076493"
       sodipodi:arg2="2.2548469"
       inkscape:rounded="0"
       inkscape:randomized="0"
       d="M 134.36116,101.55204 106.31668,78.685056 140.14231,65.831315 Z"
       inkscape:transform-center-x="3.710557"
       inkscape:transform-center-y="1.6688735"
       transform="translate(23.148136,15.882782)" /><path
       sodipodi:type="star"
       style="fill:#606060;fill-opacity:1;stroke:none;stroke-width:2.54;stroke-linejoin:round;stroke-opacity:1;paint-order:markers stroke fill"
       id="path17"
       inkscape:flatsided="true"
       sodipodi:sides="10"
       sodipodi:cx="119.32365"
       sodipodi:cy="97.255608"
       sodipodi:r1="24.014612"
       sodipodi:r2="22.839252"
       sodipodi:arg1="1.0234034"
       sodipodi:arg2="1.3375627"
       inkscape:rounded="0"
       inkscape:randomized="0"
       d="m 131.82236,117.76131 -14.43999,3.43032 -13.69849,-5.71243 -7.724628,-12.67322 1.199774,-14.793273 9.665904,-11.2628 14.43999,-3.430319 13.69849,5.712426 7.72463,12.67322 -1.19977,14.793276 z"
       inkscape:transform-center-x="1.5032901e-06"
       inkscape:transform-center-y="-1.2252675e-06"
       transform="translate(19.242289,44.004887)" /></g><g
     inkscape:groupmode="layer"
     id="layer5"
     inkscape:label="chat"
     transform="translate(-29.284209,-31.431992)"
     style="display:none"><g
       id="g15"
       transform="translate(6.612943,2.514285)"><g
         id="g14"
         style="fill:#b1b1b1;fill-opacity:1"
         transform="translate(22.671266,24.990758)"><ellipse
           style="fill:#b1b1b1;fill-opacity:1;stroke-width:2.54;stroke-linejoin:round;paint-order:markers stroke fill"
           id="path1"
           cx="80"
           cy="80"
           rx="71.979599"
           ry="55.513676" /><path
           style="fill:#b1b1b1;fill-opacity:1;stroke-width:2.54;stroke-linejoin:round;paint-order:markers stroke fill"
           d="m 15.995466,142.70465 c 0,0 39.204575,-13.48637 38.577301,-55.513674 -0.627271,-42.027305 83.427333,-23.20911 45.790943,20.386374 -37.636389,43.59549 -84.368244,35.1273 -84.368244,35.1273 z"
           id="path10-4" /></g><circle
         style="fill:#d9d9d9;fill-opacity:1;stroke-width:2.54;stroke-linejoin:round;paint-order:markers stroke fill"
         id="path11-6"
         cx="102.67126"
         cy="104.99076"
         r="10" /><g
         id="g13"
         transform="translate(20.946264,24.990758)"
         style="fill:#d9d9d9;fill-opacity:1"><circle
           style="fill:#d9d9d9;fill-opacity:1;stroke-width:2.54;stroke-linejoin:round;paint-order:markers stroke fill"
           id="circle12"
           cx="42.677246"
           cy="80"
           r="10" /><circle
           style="fill:#d9d9d9;fill-opacity:1;stroke-width:2.54;stroke-linejoin:round;paint-order:markers stroke fill"
           id="circle13"
           cx="120.77276"
           cy="80"
           r="10" /></g></g></g></svg>
